<svg height="1786" overflow="hidden" width="3626" xml:space="preserve"
     xmlns="http://www.w3.org/2000/svg"><defs><clipPath id="clip0"><rect height="1786" width="3626" x="428" y="353"/></clipPath></defs>
  <g clip-path="url(#clip0)" transform="translate(-428 -353)"><path d="M1287.95 353C1529.78 353 1748.72 453.111 1907.21 614.968L1911 619.23 1730.53 655.708 1685.16 815.005 1657.61 789.429C1557.15 704.76 1428.36 653.899 1287.95 653.899 1147.53 653.899 1018.74 704.76 918.286 789.429L888.583 817 718.986 777.248 678 606.322 730.878 557.241C882.262 429.647 1076.34 353 1287.95 353Z" fill="#1C82AD" fill-rule="evenodd"/>
    <path
      d="M430.717 1294.96C414.132 1048.54 496.915 818.868 644.164 646.74L648.068 642.594 696.079 824.082 854.808 859.842 831.712 889.6C755.889 997.527 715.035 1132.1 724.665 1275.18 734.295 1418.26 792.814 1546.14 882.416 1642.93L911.387 1671.39 884.184 1846.81 720.018 1899.81 668.444 1849.16C533.416 1703.3 445.229 1510.58 430.717 1294.96Z"
      fill="#98D8AA" fill-rule="evenodd"/>
    <path
      d="M1392.97 2133.54C1152.33 2158.74 924.05 2082.14 749.52 1937.93L745.302 1934.1 921.089 1879.08 949.681 1716.17 979.759 1738.7C1088.52 1812.3 1221.96 1849.39 1361.69 1834.76 1501.42 1820.13 1624.29 1756.21 1715.45 1661.67L1742.14 1631.2 1915.04 1653.01 1973.59 1818.46 1926.08 1872.71C1788.7 2015.17 1603.54 2111.5 1392.97 2133.54Z"
      fill="#FF6D60" fill-rule="evenodd"/>
    <path
      d="M609.946 0C851.783 0 1070.72 100.111 1229.21 261.968L1233 266.23 1052.53 302.708 1007.16 462.005 979.606 436.429C879.151 351.76 750.364 300.899 609.946 300.899 469.528 300.899 340.742 351.76 240.287 436.429L210.583 464 40.9864 424.247 0 253.322 52.8776 204.241C204.262 76.6474 398.339 0 609.946 0Z"
      fill="#1C82AD" fill-rule="evenodd" transform="matrix(-1 0 0 1 3804 353)"/>
    <path
      d="M622.913 0C869.89 0 1093.49 98.0195 1255.34 256.495L1259.21 260.669 1074.91 296.384 1028.57 452.353 1000.43 427.312C897.84 344.412 766.316 294.613 622.913 294.613 479.51 294.613 347.986 344.412 245.395 427.312L215.059 454.307 41.8577 415.385 0 248.03 54.0017 199.974C208.604 75.0462 406.807 0 622.913 0Z"
      fill="#98D8AA" fill-rule="evenodd" transform="matrix(0.0671533 -0.997743 -0.997743 -0.0671533 4009.95 1903.53)"/>
    <path
      d="M609.92 0C851.746 0 1070.68 100.108 1229.15 261.959L1232.95 266.221 1052.49 302.698 1007.12 461.989 979.564 436.414C879.113 351.749 750.332 300.888 609.92 300.888 469.508 300.888 340.727 351.749 240.276 436.414L210.574 463.985 40.9846 424.233 0 253.314 52.8753 204.234C204.253 76.6448 398.322 0 609.92 0Z"
      fill="#F7D060" fill-rule="evenodd" transform="matrix(0.994564 0.104125 0.104125 -0.994564 2482.57 2063.83)"/>
    <path d="M1.71643 0 1182.79 0 1266.67 159.824 1184.12 300.707 0 300.707 101.856 153.213Z" fill="#FF6D60"
          fill-rule="evenodd" transform="matrix(-0.653731 -0.756727 -0.756727 0.653731 2707.6 1564.38)"/>
    <path d="M1780.01 1577.95 2526.3 662.534 2703.18 698.505 2760.21 851.513 2011.99 1769.29 1962.04 1597.15Z"
          fill="#F7D060" fill-rule="evenodd"/></g></svg>
